# xmcd CD database file
#
# Track frame offsets:
#	150
#	10457
#	24347
#	39702
#	52047
#	66260
#	78257
#	89195
#	103930
#	117275
#
# Disc length: 1742 seconds
#
# Revision: 0
# Processed by: cddbd v1.5.1PL0 Copyright (c) Steve Scherf et al.
# Submitted via: CDex 1.51
#
DISCID=8806cc0a
DTITLE=Larry Mercey - Full Speed Ahead
DYEAR=1900
DGENRE=Country
TTITLE0=Full Speed Ahead
TTITLE1=You Always Come Through For Me
TTITLE2=She Feels Like A New Man Tonight
TTITLE3=You'll Find Me Where You Are
TTITLE4=True Blue
TTITLE5=There's Gotta Be A Better Way Than This
TTITLE6=When's Momma Comin' Home
TTITLE7=Hold That Thought
TTITLE8=If I Could Live My Love Over
TTITLE9=You're Still In These Crazy Arms Of Mine 
EXTD=
EXTT0=
EXTT1=
EXTT2=
EXTT3=
EXTT4=
EXTT5=
EXTT6=
EXTT7=
EXTT8=
EXTT9=
PLAYORDER=
